<?xml version="1.0" encoding="utf-8"?>
<!-- Generator: Adobe Illustrator 21.1.0, SVG Export Plug-In . SVG Version: 6.00 Build 0)  -->
<svg version="1.1" xmlns="http://www.w3.org/2000/svg" xmlns:xlink="http://www.w3.org/1999/xlink" x="0px" y="0px"
	 viewBox="0 0 80 100" style="enable-background:new 0 0 80 100;" xml:space="preserve">
<metadata><?xpacket begin="﻿" id="W5M0MpCehiHzreSzNTczkc9d"?>
<x:xmpmeta xmlns:x="adobe:ns:meta/" x:xmptk="Adobe XMP Core 5.6-c137 79.159547, 2016/07/07-11:39:24        ">
   <rdf:RDF xmlns:rdf="http://www.w3.org/1999/02/22-rdf-syntax-ns#">
      <rdf:Description rdf:about=""
            xmlns:xmp="http://ns.adobe.com/xap/1.0/"
            xmlns:xmpMM="http://ns.adobe.com/xap/1.0/mm/"
            xmlns:stEvt="http://ns.adobe.com/xap/1.0/sType/ResourceEvent#">
         <xmp:Rating>5</xmp:Rating>
         <xmp:MetadataDate>2018-06-20T14:06:59-07:00</xmp:MetadataDate>
         <xmpMM:InstanceID>xmp.iid:e7f77d5f-256e-4a7e-9114-5eb0883a7edf</xmpMM:InstanceID>
         <xmpMM:DocumentID>xmp.did:e7f77d5f-256e-4a7e-9114-5eb0883a7edf</xmpMM:DocumentID>
         <xmpMM:OriginalDocumentID>xmp.did:e7f77d5f-256e-4a7e-9114-5eb0883a7edf</xmpMM:OriginalDocumentID>
         <xmpMM:History>
            <rdf:Seq>
               <rdf:li>
                  <rdf:Description>
                     <stEvt:action>saved</stEvt:action>
                     <stEvt:instanceID>xmp.iid:e7f77d5f-256e-4a7e-9114-5eb0883a7edf</stEvt:instanceID>
                     <stEvt:when>2018-06-20T14:06:59-07:00</stEvt:when>
                     <stEvt:softwareAgent>Adobe Bridge CC 2017 (Macintosh)</stEvt:softwareAgent>
                     <stEvt:changed>/metadata</stEvt:changed>
                  </rdf:Description>
               </rdf:li>
            </rdf:Seq>
         </xmpMM:History>
      </rdf:Description>
   </rdf:RDF>
</x:xmpmeta>
                                                                                                    
                                                                                                    
                                                                                                    
                                                                                                    
                                                                                                    
                                                                                                    
                                                                                                    
                                                                                                    
                                                                                                    
                                                                                                    
                                                                                                    
                                                                                                    
                                                                                                    
                                                                                                    
                                                                                                    
                                                                                                    
                                                                                                    
                                                                                                    
                                                                                                    
                                                                                                    
                           
<?xpacket end="w"?></metadata>
<style type="text/css">
	.st0{fill:none;stroke:#FFFFFF;stroke-miterlimit:10;}
	.st1{fill:#FFFFFF;stroke:#FFFFFF;stroke-miterlimit:10;}
	.st2{fill:#FFFFFF;}
</style>
<g id="Layer_3">
</g>
<g id="Layer_1">
	<g>
		<rect x="16.5" y="36.9" class="st0" width="47.3" height="47.6"/>
		<line class="st0" x1="25.9" y1="36.8" x2="25.9" y2="84.6"/>
		<line class="st0" x1="16.5" y1="36.8" x2="16.5" y2="84.6"/>
		<line class="st0" x1="63.8" y1="36.8" x2="63.8" y2="84.6"/>
		<line class="st0" x1="44.9" y1="36.8" x2="44.9" y2="84.6"/>
		<line class="st0" x1="35.4" y1="36.8" x2="35.4" y2="84.6"/>
		<line class="st0" x1="54.3" y1="36.8" x2="54.3" y2="84.6"/>
		<line class="st0" x1="64" y1="46.5" x2="16.2" y2="46.5"/>
		<line class="st0" x1="64" y1="37.1" x2="16.2" y2="37.1"/>
		<line class="st0" x1="64" y1="84.4" x2="16.2" y2="84.4"/>
		<line class="st0" x1="64" y1="65.5" x2="16.2" y2="65.5"/>
		<line class="st0" x1="64" y1="56" x2="16.2" y2="56"/>
		<line class="st0" x1="64" y1="74.9" x2="16.2" y2="74.9"/>
	</g>
	<g>
		<line class="st0" x1="14.6" y1="28.4" x2="19.5" y2="33.3"/>
		<line class="st0" x1="19.5" y1="28.4" x2="14.6" y2="33.3"/>
	</g>
	<g>
		<line class="st0" x1="61.4" y1="28.4" x2="66.2" y2="33.3"/>
		<line class="st0" x1="66.2" y1="28.4" x2="61.4" y2="33.3"/>
	</g>
	<g>
		<circle class="st1" cx="35.3" cy="41.9" r="2.4"/>
		<circle class="st1" cx="54.3" cy="41.9" r="2.4"/>
	</g>
	<g>
		<circle class="st1" cx="44.8" cy="41.9" r="2.4"/>
		<circle class="st1" cx="25.7" cy="60.6" r="2.4"/>
	</g>
	<g>
		<path class="st2" d="M23.3,21.2l-0.7-1.7h-3.3l-0.6,1.7h-2.2l3.6-8.5h2l3.5,8.5H23.3z M21,15l-1.1,2.9h2.1L21,15z"/>
	</g>
	<g>
		<path class="st2" d="M27.3,10.7h0.5v7.2c0.4-0.4,0.8-0.7,1.1-0.9c0.3-0.2,0.6-0.3,0.8-0.3c0.2,0,0.5,0,0.7,0.1
			c0.2,0.1,0.4,0.2,0.5,0.4s0.3,0.4,0.3,0.6c0.1,0.2,0.1,0.5,0.1,0.7c0,0.2,0,0.3-0.1,0.5s-0.2,0.4-0.4,0.6
			c-0.1,0.2-0.3,0.4-0.4,0.5c-0.2,0.2-0.3,0.3-0.4,0.4L27.3,23L27.3,10.7z M27.8,22.2c0.2-0.3,0.4-0.6,0.7-0.9
			c0.2-0.3,0.4-0.6,0.6-1c0.2-0.3,0.4-0.7,0.5-1c0.1-0.4,0.2-0.7,0.2-1.1c0-0.2-0.1-0.4-0.2-0.6s-0.3-0.2-0.5-0.2
			c-0.2,0-0.4,0-0.6,0.1c-0.2,0.1-0.3,0.2-0.5,0.3l-0.3,0.4L27.8,22.2z"/>
	</g>
</g>
<g id="guides_frets_x2F_strings">
</g>
</svg>
