<?xml version="1.0" encoding="utf-8"?>
<!-- Generator: Adobe Illustrator 21.1.0, SVG Export Plug-In . SVG Version: 6.00 Build 0)  -->
<svg version="1.1" xmlns="http://www.w3.org/2000/svg" xmlns:xlink="http://www.w3.org/1999/xlink" x="0px" y="0px"
	 viewBox="0 0 80 100" style="enable-background:new 0 0 80 100;" xml:space="preserve">
<style type="text/css">
	.st0{fill:none;stroke:#FFFFFF;stroke-miterlimit:10;}
	.st1{fill:none;stroke:#FFFFFF;stroke-width:0.9;stroke-miterlimit:10;}
	.st2{fill:#FFFFFF;stroke:#FFFFFF;stroke-miterlimit:10;}
	.st3{fill:#FFFFFF;}
</style>
<g id="Layer_1">
	<g>
		<rect x="16.5" y="36.9" class="st0" width="47.3" height="47.6"/>
		<line class="st0" x1="25.9" y1="36.8" x2="25.9" y2="84.6"/>
		<line class="st0" x1="16.5" y1="36.8" x2="16.5" y2="84.6"/>
		<line class="st0" x1="63.8" y1="36.8" x2="63.8" y2="84.6"/>
		<line class="st0" x1="44.9" y1="36.8" x2="44.9" y2="84.6"/>
		<line class="st0" x1="35.4" y1="36.8" x2="35.4" y2="84.6"/>
		<line class="st0" x1="54.3" y1="36.8" x2="54.3" y2="84.6"/>
		<line class="st0" x1="64" y1="46.5" x2="16.2" y2="46.5"/>
		<line class="st0" x1="64" y1="37.1" x2="16.2" y2="37.1"/>
		<line class="st0" x1="64" y1="84.4" x2="16.2" y2="84.4"/>
		<line class="st0" x1="64" y1="65.5" x2="16.2" y2="65.5"/>
		<line class="st0" x1="64" y1="56" x2="16.2" y2="56"/>
		<line class="st0" x1="64" y1="74.9" x2="16.2" y2="74.9"/>
	</g>
	<g>
		<line class="st0" x1="14.6" y1="28.4" x2="19.5" y2="33.3"/>
		<line class="st0" x1="19.5" y1="28.4" x2="14.6" y2="33.3"/>
	</g>
	<circle class="st1" cx="54.4" cy="30.9" r="2.7"/>
	<g>
		<circle class="st2" cx="44.8" cy="51.5" r="2.4"/>
		<circle class="st2" cx="63.7" cy="51.5" r="2.4"/>
		<circle class="st0" cx="16.4" cy="51.5" r="2.4"/>
		<circle class="st2" cx="26" cy="51.5" r="2.4"/>
	</g>
	<g>
		<circle class="st2" cx="35.3" cy="41.6" r="2.4"/>
	</g>
	<g>
		<path class="st3" d="M24.2,18.7c0,0.5-0.1,0.9-0.3,1.2c-0.2,0.3-0.4,0.6-0.7,0.8c-0.3,0.2-0.7,0.3-1,0.4c-0.4,0.1-0.8,0.1-1.2,0.1
			h-3.4v-8.5h3.4c0.3,0,0.7,0,1,0.1c0.3,0.1,0.7,0.2,0.9,0.3c0.3,0.2,0.5,0.4,0.7,0.7c0.2,0.3,0.3,0.6,0.3,1.1
			c0,0.5-0.1,0.9-0.4,1.2c-0.3,0.3-0.6,0.5-1,0.7v0c0.2,0,0.5,0.1,0.7,0.2s0.4,0.2,0.6,0.4c0.2,0.2,0.3,0.4,0.4,0.6
			C24.1,18.2,24.2,18.5,24.2,18.7z M21.8,15.2c0-0.3-0.1-0.5-0.3-0.6c-0.2-0.1-0.5-0.2-1-0.2h-1v1.8h1.1c0.4,0,0.7-0.1,0.9-0.2
			C21.7,15.7,21.8,15.5,21.8,15.2z M22.1,18.5c0-0.4-0.1-0.6-0.4-0.7c-0.3-0.1-0.6-0.2-1.1-0.2h-1.1v1.9h1.2c0.2,0,0.3,0,0.5,0
			c0.2,0,0.3-0.1,0.5-0.1c0.1-0.1,0.3-0.2,0.3-0.3C22.1,18.9,22.1,18.8,22.1,18.5z"/>
		<path class="st3" d="M28.3,21.2H26l3.4-6.8h-4v-1.7h6.2v1.6L28.3,21.2z"/>
	</g>
</g>
<g id="guides_frets_x2F_strings">
</g>
</svg>
