<?xml version="1.0" encoding="utf-8"?>
<!-- Generator: Adobe Illustrator 21.1.0, SVG Export Plug-In . SVG Version: 6.00 Build 0)  -->
<svg version="1.1" xmlns="http://www.w3.org/2000/svg" xmlns:xlink="http://www.w3.org/1999/xlink" x="0px" y="0px"
	 viewBox="0 0 80 100" style="enable-background:new 0 0 80 100;" xml:space="preserve">
<style type="text/css">
	.st0{fill:none;stroke:#FFFFFF;stroke-miterlimit:10;}
	.st1{fill:none;stroke:#FFFFFF;stroke-width:0.9;stroke-miterlimit:10;}
	.st2{fill:#FFFFFF;stroke:#FFFFFF;stroke-miterlimit:10;}
	.st3{fill:#FFFFFF;}
</style>
<g id="Layer_1">
	<g>
		<rect x="16.5" y="36.9" class="st0" width="47.3" height="47.6"/>
		<line class="st0" x1="26" y1="36.8" x2="26" y2="84.6"/>
		<line class="st0" x1="16.6" y1="36.8" x2="16.6" y2="84.6"/>
		<line class="st0" x1="63.8" y1="36.8" x2="63.8" y2="84.6"/>
		<line class="st0" x1="44.9" y1="36.8" x2="44.9" y2="84.6"/>
		<line class="st0" x1="35.5" y1="36.8" x2="35.5" y2="84.6"/>
		<line class="st0" x1="54.4" y1="36.8" x2="54.4" y2="84.6"/>
		<line class="st0" x1="64.1" y1="46.5" x2="16.3" y2="46.5"/>
		<line class="st0" x1="64.1" y1="37.1" x2="16.3" y2="37.1"/>
		<line class="st0" x1="64.1" y1="84.4" x2="16.3" y2="84.4"/>
		<line class="st0" x1="64.1" y1="65.5" x2="16.3" y2="65.5"/>
		<line class="st0" x1="64.1" y1="56" x2="16.3" y2="56"/>
		<line class="st0" x1="64.1" y1="74.9" x2="16.3" y2="74.9"/>
	</g>
	<g>
		<line class="st0" x1="23.5" y1="28.4" x2="28.4" y2="33.3"/>
		<line class="st0" x1="28.4" y1="28.4" x2="23.5" y2="33.3"/>
	</g>
	<circle class="st1" cx="16.9" cy="30.8" r="2.7"/>
	<g>
		<circle class="st2" cx="35.4" cy="51.5" r="2.4"/>
	</g>
	<g>
		<circle class="st2" cx="44.9" cy="60.6" r="2.4"/>
		<circle class="st2" cx="63.8" cy="60.6" r="2.4"/>
	</g>
	<g>
		<circle class="st2" cx="54.4" cy="41.6" r="2.4"/>
	</g>
	<g>
		<path class="st3" d="M23.7,21.1c-0.6,0.3-1.2,0.4-1.9,0.4c-0.7,0-1.3-0.1-1.8-0.3c-0.6-0.2-1-0.5-1.4-0.9c-0.4-0.4-0.7-0.9-1-1.4
			c-0.2-0.6-0.3-1.2-0.3-1.8c0-0.7,0.1-1.3,0.4-1.8c0.2-0.6,0.6-1,1-1.4c0.4-0.4,0.9-0.7,1.5-0.9s1.2-0.3,1.8-0.3
			c0.6,0,1.2,0.1,1.8,0.3s1.1,0.5,1.4,0.9l-1.4,1.4c-0.2-0.3-0.4-0.5-0.8-0.6s-0.6-0.2-1-0.2c-0.4,0-0.7,0.1-1,0.2
			c-0.3,0.1-0.6,0.3-0.8,0.5c-0.2,0.2-0.4,0.5-0.5,0.8s-0.2,0.7-0.2,1c0,0.4,0.1,0.7,0.2,1.1c0.1,0.3,0.3,0.6,0.5,0.8
			c0.2,0.2,0.5,0.4,0.8,0.5c0.3,0.1,0.6,0.2,1,0.2c0.4,0,0.8-0.1,1.1-0.2s0.5-0.4,0.7-0.6l1.4,1.3C24.7,20.5,24.2,20.8,23.7,21.1z"
			/>
		<path class="st3" d="M28.8,21.2h-2.3l3.4-6.8h-4v-1.7H32v1.6L28.8,21.2z"/>
	</g>
</g>
<g id="guides_frets_x2F_strings">
</g>
</svg>
