<?xml version="1.0" encoding="utf-8"?>
<!-- Generator: Adobe Illustrator 21.1.0, SVG Export Plug-In . SVG Version: 6.00 Build 0)  -->
<svg version="1.1" xmlns="http://www.w3.org/2000/svg" xmlns:xlink="http://www.w3.org/1999/xlink" x="0px" y="0px"
	 viewBox="0 0 80 100" style="enable-background:new 0 0 80 100;" xml:space="preserve">
<style type="text/css">
	.st0{fill:none;stroke:#FFFFFF;stroke-miterlimit:10;}
	.st1{fill:none;stroke:#FFFFFF;stroke-width:0.9;stroke-miterlimit:10;}
	.st2{fill:#FFFFFF;stroke:#FFFFFF;stroke-miterlimit:10;}
	.st3{fill:#FFFFFF;}
</style>
<g id="Layer_1">
	<g>
		<rect x="16.6" y="36.9" class="st0" width="47.3" height="47.6"/>
		<line class="st0" x1="26.1" y1="36.8" x2="26.1" y2="84.6"/>
		<line class="st0" x1="16.6" y1="36.8" x2="16.6" y2="84.6"/>
		<line class="st0" x1="63.9" y1="36.8" x2="63.9" y2="84.6"/>
		<line class="st0" x1="45" y1="36.8" x2="45" y2="84.6"/>
		<line class="st0" x1="35.5" y1="36.8" x2="35.5" y2="84.6"/>
		<line class="st0" x1="54.4" y1="36.8" x2="54.4" y2="84.6"/>
		<line class="st0" x1="64.1" y1="46.6" x2="16.3" y2="46.6"/>
		<line class="st0" x1="64.1" y1="37.1" x2="16.3" y2="37.1"/>
		<line class="st0" x1="64.1" y1="84.4" x2="16.3" y2="84.4"/>
		<line class="st0" x1="64.1" y1="65.5" x2="16.3" y2="65.5"/>
		<line class="st0" x1="64.1" y1="56" x2="16.3" y2="56"/>
		<line class="st0" x1="64.1" y1="74.9" x2="16.3" y2="74.9"/>
	</g>
	<circle class="st1" cx="16.9" cy="30.8" r="2.7"/>
	<circle class="st1" cx="63.3" cy="30.9" r="2.7"/>
	<circle class="st1" cx="36.1" cy="30.9" r="2.7"/>
	<g>
		<circle class="st2" cx="26.1" cy="51.5" r="2.4"/>
	</g>
	<g>
		<circle class="st2" cx="54.4" cy="60.6" r="2.4"/>
	</g>
	<g>
		<circle class="st2" cx="44.9" cy="41.6" r="2.4"/>
	</g>
	<g>
		<path class="st3" d="M17.6,21.2v-8.5h5.7v1.7h-3.7v1.6h3.5v1.6h-3.5v1.8h3.9v1.8H17.6z"/>
		<path class="st3" d="M27.7,21.2h-2.3l3.4-6.8h-4v-1.7H31v1.6L27.7,21.2z"/>
	</g>
</g>
<g id="guides_frets_x2F_strings">
</g>
</svg>
