<?xml version="1.0" encoding="utf-8"?>
<!-- Generator: Adobe Illustrator 21.1.0, SVG Export Plug-In . SVG Version: 6.00 Build 0)  -->
<svg version="1.1" xmlns="http://www.w3.org/2000/svg" xmlns:xlink="http://www.w3.org/1999/xlink" x="0px" y="0px"
	 viewBox="0 0 80 100" style="enable-background:new 0 0 80 100;" xml:space="preserve">
<style type="text/css">
	.st0{fill:#FFFFFF;}
	.st1{fill:none;stroke:#FFFFFF;stroke-miterlimit:10;}
	.st2{fill:#FFFFFF;stroke:#FFFFFF;stroke-miterlimit:10;}
</style>
<g id="Layer_3">
</g>
<g id="Layer_1">
	<g>
		<path class="st0" d="M28.6,11.5v2.2l0.8-0.4l0,1l-0.8,0.4l0,3l0.8-0.4v1l-0.8,0.4l0,2.1h-0.4l0-1.9L26,20l0,2.3l-0.4,0l0-2.2
			l-0.8,0.4v-1l0.9-0.4l0-3l-0.8,0.4v-1l0.8-0.4l0-2.1H26l0,1.9l2.1-1.1l0-2.4L28.6,11.5z M28.2,14.9L26,16l0,3l2.1-1.1V14.9z"/>
	</g>
	<g>
		<rect x="16.5" y="36.9" class="st1" width="47.3" height="47.6"/>
		<line class="st1" x1="25.9" y1="36.8" x2="25.9" y2="84.6"/>
		<line class="st1" x1="16.5" y1="36.8" x2="16.5" y2="84.6"/>
		<line class="st1" x1="63.8" y1="36.8" x2="63.8" y2="84.6"/>
		<line class="st1" x1="44.9" y1="36.8" x2="44.9" y2="84.6"/>
		<line class="st1" x1="35.4" y1="36.8" x2="35.4" y2="84.6"/>
		<line class="st1" x1="54.3" y1="36.8" x2="54.3" y2="84.6"/>
		<line class="st1" x1="64" y1="46.6" x2="16.2" y2="46.6"/>
		<line class="st1" x1="64" y1="37.1" x2="16.2" y2="37.1"/>
		<line class="st1" x1="64" y1="84.4" x2="16.2" y2="84.4"/>
		<line class="st1" x1="64" y1="65.5" x2="16.2" y2="65.5"/>
		<line class="st1" x1="64" y1="56" x2="16.2" y2="56"/>
		<line class="st1" x1="64" y1="74.9" x2="16.2" y2="74.9"/>
	</g>
	<circle class="st2" cx="63.8" cy="51.3" r="2.4"/>
	<circle class="st2" cx="54.3" cy="51.3" r="2.4"/>
	<circle class="st2" cx="44.9" cy="51.3" r="2.4"/>
	<circle class="st2" cx="35.4" cy="51.3" r="2.4"/>
	<circle class="st2" cx="25.9" cy="70" r="2.4"/>
	<circle class="st2" cx="16.5" cy="51.3" r="2.4"/>
	<g>
		<path class="st0" d="M19.6,14.5v1.8h3.3v1.7h-3.3v3.3h-2v-8.5h5.6v1.8H19.6z"/>
	</g>
	<g>
		<path class="st0" d="M42.8,21.2v-3.3c0-0.2,0-0.3,0-0.5s-0.1-0.3-0.1-0.4c-0.1-0.1-0.2-0.2-0.3-0.3c-0.1-0.1-0.3-0.1-0.4-0.1
			c-0.2,0-0.3,0-0.4,0.1s-0.2,0.2-0.3,0.3S41,17.3,41,17.5c0,0.2-0.1,0.3-0.1,0.5v3.2h-2v-3.4c0-0.3-0.1-0.6-0.2-0.8
			c-0.1-0.2-0.4-0.3-0.6-0.3c-0.3,0-0.6,0.1-0.7,0.4s-0.3,0.6-0.3,0.9v3.2h-2v-6h1.9v0.8h0c0.1-0.1,0.2-0.3,0.3-0.4
			c0.1-0.1,0.2-0.2,0.4-0.3c0.2-0.1,0.3-0.2,0.5-0.2c0.2-0.1,0.4-0.1,0.6-0.1c0.4,0,0.8,0.1,1.1,0.3c0.3,0.2,0.5,0.4,0.7,0.8
			c0.2-0.3,0.5-0.6,0.8-0.7c0.3-0.2,0.7-0.3,1.1-0.3c0.4,0,0.8,0.1,1,0.2c0.3,0.1,0.5,0.3,0.7,0.6c0.2,0.2,0.3,0.5,0.4,0.8
			c0.1,0.3,0.1,0.6,0.1,0.9v3.7H42.8z"/>
		<path class="st0" d="M49.2,21.2h-2.3l3.4-6.8h-4v-1.7h6.2v1.6L49.2,21.2z"/>
	</g>
</g>
<g id="guides_frets_x2F_strings">
</g>
</svg>
