<?xml version="1.0" encoding="utf-8"?>
<!-- Generator: Adobe Illustrator 21.1.0, SVG Export Plug-In . SVG Version: 6.00 Build 0)  -->
<svg version="1.1" xmlns="http://www.w3.org/2000/svg" xmlns:xlink="http://www.w3.org/1999/xlink" x="0px" y="0px"
	 viewBox="0 0 80 100" style="enable-background:new 0 0 80 100;" xml:space="preserve">
<style type="text/css">
	.st0{fill:none;stroke:#FFFFFF;stroke-miterlimit:10;}
	.st1{fill:none;stroke:#FFFFFF;stroke-width:0.9;stroke-miterlimit:10;}
	.st2{fill:#FFFFFF;stroke:#FFFFFF;stroke-miterlimit:10;}
	.st3{fill:#FFFFFF;}
</style>
<g id="Layer_1">
	<g>
		<rect x="16.3" y="36.9" class="st0" width="47.3" height="47.6"/>
		<line class="st0" x1="25.8" y1="36.8" x2="25.8" y2="84.6"/>
		<line class="st0" x1="16.4" y1="36.8" x2="16.4" y2="84.6"/>
		<line class="st0" x1="63.6" y1="36.8" x2="63.6" y2="84.6"/>
		<line class="st0" x1="44.7" y1="36.8" x2="44.7" y2="84.6"/>
		<line class="st0" x1="35.3" y1="36.8" x2="35.3" y2="84.6"/>
		<line class="st0" x1="54.2" y1="36.8" x2="54.2" y2="84.6"/>
		<line class="st0" x1="63.9" y1="46.6" x2="16.1" y2="46.6"/>
		<line class="st0" x1="63.9" y1="37.1" x2="16.1" y2="37.1"/>
		<line class="st0" x1="63.9" y1="84.4" x2="16.1" y2="84.4"/>
		<line class="st0" x1="63.9" y1="65.5" x2="16.1" y2="65.5"/>
		<line class="st0" x1="63.9" y1="56" x2="16.1" y2="56"/>
		<line class="st0" x1="63.9" y1="74.9" x2="16.1" y2="74.9"/>
	</g>
	<g>
		<circle class="st2" cx="25.8" cy="51.5" r="2.4"/>
	</g>
	<g>
		<circle class="st2" cx="16.3" cy="60.6" r="2.4"/>
	</g>
	<circle class="st2" cx="63.6" cy="41.6" r="2.4"/>
	<g>
		<path class="st3" d="M23.5,21.2c-0.6,0.1-1.2,0.2-1.8,0.2c-0.7,0-1.3-0.1-1.9-0.3c-0.6-0.2-1.1-0.5-1.5-0.9
			c-0.4-0.4-0.7-0.9-1-1.4C17.1,18.2,17,17.6,17,17c0-0.7,0.1-1.3,0.4-1.8c0.2-0.6,0.6-1,1-1.4c0.4-0.4,0.9-0.7,1.5-0.9
			s1.2-0.3,1.8-0.3c0.7,0,1.3,0.1,1.9,0.3s1,0.5,1.4,0.8l-1.3,1.5c-0.2-0.2-0.5-0.4-0.8-0.6c-0.3-0.1-0.7-0.2-1.1-0.2
			c-0.4,0-0.7,0.1-1,0.2c-0.3,0.1-0.6,0.3-0.8,0.6c-0.2,0.2-0.4,0.5-0.5,0.8s-0.2,0.7-0.2,1.1c0,0.4,0.1,0.8,0.2,1.1
			c0.1,0.3,0.3,0.6,0.5,0.8c0.2,0.2,0.5,0.4,0.8,0.6s0.7,0.2,1.1,0.2c0.2,0,0.5,0,0.7-0.1c0.2,0,0.4-0.1,0.6-0.2v-1.5h-1.6v-1.7h3.5
			v4.5C24.5,20.9,24,21.1,23.5,21.2z"/>
		<path class="st3" d="M29.4,21.2h-2.3l3.4-6.8h-4v-1.7h6.2v1.6L29.4,21.2z"/>
	</g>
	<circle class="st1" cx="35.4" cy="30.9" r="2.7"/>
	<circle class="st1" cx="44.9" cy="30.9" r="2.7"/>
	<circle class="st1" cx="54.2" cy="30.9" r="2.7"/>
</g>
<g id="guides_frets_x2F_strings">
</g>
</svg>
