<?xml version="1.0" encoding="utf-8"?>
<!-- Generator: Adobe Illustrator 21.1.0, SVG Export Plug-In . SVG Version: 6.00 Build 0)  -->
<svg version="1.1" xmlns="http://www.w3.org/2000/svg" xmlns:xlink="http://www.w3.org/1999/xlink" x="0px" y="0px"
	 viewBox="0 0 80 100" style="enable-background:new 0 0 80 100;" xml:space="preserve">
<metadata><?xpacket begin="﻿" id="W5M0MpCehiHzreSzNTczkc9d"?>
<x:xmpmeta xmlns:x="adobe:ns:meta/" x:xmptk="Adobe XMP Core 5.6-c137 79.159547, 2016/07/07-11:39:24        ">
   <rdf:RDF xmlns:rdf="http://www.w3.org/1999/02/22-rdf-syntax-ns#">
      <rdf:Description rdf:about=""
            xmlns:xmp="http://ns.adobe.com/xap/1.0/"
            xmlns:xmpMM="http://ns.adobe.com/xap/1.0/mm/"
            xmlns:stEvt="http://ns.adobe.com/xap/1.0/sType/ResourceEvent#">
         <xmp:Rating>5</xmp:Rating>
         <xmp:MetadataDate>2018-06-20T14:07-07:00</xmp:MetadataDate>
         <xmpMM:InstanceID>xmp.iid:822eb0b8-72eb-4a35-8e49-e7941805a222</xmpMM:InstanceID>
         <xmpMM:DocumentID>xmp.did:822eb0b8-72eb-4a35-8e49-e7941805a222</xmpMM:DocumentID>
         <xmpMM:OriginalDocumentID>xmp.did:822eb0b8-72eb-4a35-8e49-e7941805a222</xmpMM:OriginalDocumentID>
         <xmpMM:History>
            <rdf:Seq>
               <rdf:li>
                  <rdf:Description>
                     <stEvt:action>saved</stEvt:action>
                     <stEvt:instanceID>xmp.iid:822eb0b8-72eb-4a35-8e49-e7941805a222</stEvt:instanceID>
                     <stEvt:when>2018-06-20T14:07-07:00</stEvt:when>
                     <stEvt:softwareAgent>Adobe Bridge CC 2017 (Macintosh)</stEvt:softwareAgent>
                     <stEvt:changed>/metadata</stEvt:changed>
                  </rdf:Description>
               </rdf:li>
            </rdf:Seq>
         </xmpMM:History>
      </rdf:Description>
   </rdf:RDF>
</x:xmpmeta>
                                                                                                    
                                                                                                    
                                                                                                    
                                                                                                    
                                                                                                    
                                                                                                    
                                                                                                    
                                                                                                    
                                                                                                    
                                                                                                    
                                                                                                    
                                                                                                    
                                                                                                    
                                                                                                    
                                                                                                    
                                                                                                    
                                                                                                    
                                                                                                    
                                                                                                    
                                                                                                    
                           
<?xpacket end="w"?></metadata>
<style type="text/css">
	.st0{fill:none;stroke:#FFFFFF;stroke-miterlimit:10;}
	.st1{fill:#FFFFFF;stroke:#FFFFFF;stroke-miterlimit:10;}
	.st2{fill:#FFFFFF;}
</style>
<g id="Layer_3">
</g>
<g id="Layer_1">
	<g>
		<path class="st2" d="M28.6,11.5v2.2l0.8-0.4l0,1l-0.8,0.4l0,3l0.8-0.4v1l-0.8,0.4l0,2.1h-0.4l0-1.9L26,20l0,2.3l-0.4,0l0-2.2
			l-0.8,0.4v-1l0.9-0.4l0-3l-0.8,0.4v-1l0.8-0.4l0-2.1H26l0,1.9l2.1-1.1l0-2.4L28.6,11.5z M28.2,14.9L26,16l0,3l2.1-1.1V14.9z"/>
	</g>
	<g>
		<rect x="16.5" y="36.9" class="st0" width="47.3" height="47.6"/>
		<line class="st0" x1="25.9" y1="36.8" x2="25.9" y2="84.6"/>
		<line class="st0" x1="16.5" y1="36.8" x2="16.5" y2="84.6"/>
		<line class="st0" x1="63.8" y1="36.8" x2="63.8" y2="84.6"/>
		<line class="st0" x1="44.9" y1="36.8" x2="44.9" y2="84.6"/>
		<line class="st0" x1="35.4" y1="36.8" x2="35.4" y2="84.6"/>
		<line class="st0" x1="54.3" y1="36.8" x2="54.3" y2="84.6"/>
		<line class="st0" x1="64" y1="46.6" x2="16.2" y2="46.6"/>
		<line class="st0" x1="64" y1="37.1" x2="16.2" y2="37.1"/>
		<line class="st0" x1="64" y1="84.4" x2="16.2" y2="84.4"/>
		<line class="st0" x1="64" y1="65.5" x2="16.2" y2="65.5"/>
		<line class="st0" x1="64" y1="56" x2="16.2" y2="56"/>
		<line class="st0" x1="64" y1="74.9" x2="16.2" y2="74.9"/>
	</g>
	<g>
		<line class="st0" x1="14.6" y1="28.5" x2="19.5" y2="33.3"/>
		<line class="st0" x1="19.5" y1="28.5" x2="14.6" y2="33.3"/>
	</g>
	<g>
		<line class="st0" x1="23.5" y1="28.5" x2="28.4" y2="33.3"/>
		<line class="st0" x1="28.4" y1="28.5" x2="23.5" y2="33.3"/>
	</g>
	<circle class="st1" cx="44.9" cy="60.7" r="2.4"/>
	<circle class="st1" cx="63.8" cy="51.2" r="2.4"/>
	<circle class="st1" cx="54.3" cy="51.2" r="2.4"/>
	<circle class="st1" cx="35.4" cy="70" r="2.4"/>
	<g>
		<path class="st2" d="M19.6,14.5v1.8h3.3v1.7h-3.3v3.3h-2v-8.5h5.6v1.8H19.6z"/>
	</g>
</g>
<g id="guides_frets_x2F_strings">
</g>
</svg>
