<?xml version="1.0" encoding="utf-8"?>
<!-- Generator: Adobe Illustrator 21.1.0, SVG Export Plug-In . SVG Version: 6.00 Build 0)  -->
<svg version="1.1" xmlns="http://www.w3.org/2000/svg" xmlns:xlink="http://www.w3.org/1999/xlink" x="0px" y="0px"
	 viewBox="0 0 80 100" style="enable-background:new 0 0 80 100;" xml:space="preserve">
<style type="text/css">
	.st0{fill:#FFFFFF;}
	.st1{fill:none;stroke:#FFFFFF;stroke-miterlimit:10;}
	.st2{fill:#FFFFFF;stroke:#FFFFFF;stroke-miterlimit:10;}
</style>
<g id="Layer_3">
</g>
<g id="Layer_1">
	<g>
		<path class="st0" d="M28.6,11.5v2.2l0.8-0.4l0,1l-0.8,0.4l0,3l0.8-0.4v1l-0.8,0.4l0,2.1h-0.4l0-1.9L26,20l0,2.3l-0.4,0l0-2.2
			l-0.8,0.4v-1l0.9-0.4l0-3l-0.8,0.4v-1l0.8-0.4l0-2.1H26l0,1.9l2.1-1.1l0-2.4L28.6,11.5z M28.2,14.9L26,16l0,3l2.1-1.1V14.9z"/>
	</g>
	<g>
		<line class="st1" x1="13.4" y1="28.5" x2="18.3" y2="33.3"/>
		<line class="st1" x1="18.3" y1="28.5" x2="13.4" y2="33.3"/>
	</g>
	<g>
		<line class="st1" x1="22.4" y1="28.5" x2="27.2" y2="33.3"/>
		<line class="st1" x1="27.2" y1="28.5" x2="22.4" y2="33.3"/>
	</g>
	<g>
		<rect x="16.5" y="36.9" class="st1" width="47.3" height="47.6"/>
		<line class="st1" x1="25.9" y1="36.8" x2="25.9" y2="84.6"/>
		<line class="st1" x1="16.5" y1="36.8" x2="16.5" y2="84.6"/>
		<line class="st1" x1="63.8" y1="36.8" x2="63.8" y2="84.6"/>
		<line class="st1" x1="44.9" y1="36.8" x2="44.9" y2="84.6"/>
		<line class="st1" x1="35.4" y1="36.8" x2="35.4" y2="84.6"/>
		<line class="st1" x1="54.3" y1="36.8" x2="54.3" y2="84.6"/>
		<line class="st1" x1="64" y1="46.6" x2="16.2" y2="46.6"/>
		<line class="st1" x1="64" y1="37.1" x2="16.2" y2="37.1"/>
		<line class="st1" x1="64" y1="84.4" x2="16.2" y2="84.4"/>
		<line class="st1" x1="64" y1="65.5" x2="16.2" y2="65.5"/>
		<line class="st1" x1="64" y1="56" x2="16.2" y2="56"/>
		<line class="st1" x1="64" y1="74.9" x2="16.2" y2="74.9"/>
	</g>
	<circle class="st2" cx="63.8" cy="42" r="2.4"/>
	<circle class="st2" cx="54.3" cy="51.2" r="2.4"/>
	<circle class="st2" cx="44.9" cy="60.6" r="2.4"/>
	<circle class="st2" cx="35.4" cy="70" r="2.4"/>
	<g>
		<path class="st0" d="M19.6,14.5v1.8h3.3v1.7h-3.3v3.3h-2v-8.5h5.6v1.8H19.6z"/>
	</g>
	<g>
		<path class="st0" d="M36.1,21.2h-2.3l3.4-6.8h-4v-1.7h6.2v1.6L36.1,21.2z"/>
	</g>
</g>
<g id="guides_frets_x2F_strings">
</g>
</svg>
