<?xml version="1.0" encoding="utf-8"?>
<!-- Generator: Adobe Illustrator 21.1.0, SVG Export Plug-In . SVG Version: 6.00 Build 0)  -->
<svg version="1.1" xmlns="http://www.w3.org/2000/svg" xmlns:xlink="http://www.w3.org/1999/xlink" x="0px" y="0px"
	 viewBox="0 0 200 280" style="enable-background:new 0 0 200 280;" xml:space="preserve">
<style type="text/css">
	.st0{display:none;}
	.st1{display:inline;}
	.st2{fill:none;stroke:#00FFFF;stroke-width:5;stroke-miterlimit:10;}
	.st3{fill:none;stroke:#FFFFFF;stroke-width:5;stroke-miterlimit:10;}
	.st4{fill:#FFFFFF;}
	.st5{fill:none;stroke:#FFFFFF;stroke-width:4;stroke-miterlimit:10;}
</style>
<g id="Layer_1" class="st0">
</g>
<g id="fretboard" class="st0">
	<g class="st1">
		<line class="st2" x1="25.5" y1="189.8" x2="174.5" y2="189.8"/>
		<line class="st2" x1="25.5" y1="229.5" x2="174.5" y2="229.5"/>
		<line class="st2" x1="25.5" y1="150" x2="174.5" y2="150"/>
		<line class="st2" x1="25.5" y1="110.2" x2="174.5" y2="110.2"/>
		<line class="st2" x1="25.5" y1="70.5" x2="174.5" y2="70.5"/>
	</g>
</g>
<g id="strings">
	<g>
		<line class="st3" x1="55.3" y1="70.5" x2="55.3" y2="229.5"/>
		<line class="st3" x1="25.5" y1="70.5" x2="25.5" y2="229.5"/>
		<line class="st3" x1="85.1" y1="70.5" x2="85.1" y2="229.5"/>
		<line class="st3" x1="114.9" y1="70.5" x2="114.9" y2="229.5"/>
		<line class="st3" x1="144.7" y1="70.5" x2="144.7" y2="229.5"/>
		<line class="st3" x1="174.5" y1="70.5" x2="174.5" y2="229.5"/>
	</g>
	<g>
		<line class="st3" x1="25.5" y1="189.8" x2="174.5" y2="189.8"/>
		<line class="st3" x1="25.5" y1="229.5" x2="174.5" y2="229.5"/>
		<line class="st3" x1="25.5" y1="150" x2="174.5" y2="150"/>
		<line class="st3" x1="25.5" y1="110.2" x2="174.5" y2="110.2"/>
		<line class="st3" x1="25.5" y1="70.5" x2="174.5" y2="70.5"/>
	</g>
	<g>
		<line class="st3" x1="55.3" y1="70.5" x2="55.3" y2="229.5"/>
		<line class="st3" x1="25.5" y1="70.5" x2="25.5" y2="229.5"/>
		<line class="st3" x1="85.1" y1="70.5" x2="85.1" y2="229.5"/>
		<line class="st3" x1="114.9" y1="70.5" x2="114.9" y2="229.5"/>
		<line class="st3" x1="144.7" y1="70.5" x2="144.7" y2="229.5"/>
		<line class="st3" x1="174.5" y1="70.5" x2="174.5" y2="229.5"/>
	</g>
</g>
<g id="chords">
	<circle class="st4" cx="86" cy="129" r="10"/>
	<circle class="st5" cx="55" cy="53" r="10"/>
	<circle class="st5" cx="171" cy="53" r="10"/>
	<circle class="st4" cx="115" cy="129" r="10"/>
	<circle class="st4" cx="145" cy="129" r="10"/>
	<g>
		<line class="st5" x1="17" y1="43" x2="33.5" y2="59.5"/>
		<line class="st5" x1="33.5" y1="43" x2="17" y2="59.5"/>
	</g>
	<circle class="st4" cx="86" cy="129" r="10"/>
	<circle class="st5" cx="55" cy="53" r="10"/>
	<circle class="st5" cx="171" cy="53" r="10"/>
	<circle class="st4" cx="115" cy="129" r="10"/>
	<circle class="st4" cx="145" cy="129" r="10"/>
	<g>
		<line class="st5" x1="17" y1="43" x2="33.5" y2="59.5"/>
		<line class="st5" x1="33.5" y1="43" x2="17" y2="59.5"/>
	</g>
</g>
<g id="labels">
	<g>
		<path class="st4" d="M115,35.2h-6.3l-2.5-6.5H94.8l-2.4,6.5h-6.1L97.5,6.5h6.1L115,35.2z M104.4,23.8l-3.9-10.6l-3.9,10.6H104.4z"
			/>
	</g>
	<g>
		<path class="st4" d="M115,35.2h-6.3l-2.5-6.5H94.8l-2.4,6.5h-6.1L97.5,6.5h6.1L115,35.2z M104.4,23.8l-3.9-10.6l-3.9,10.6H104.4z"
			/>
	</g>
</g>
</svg>
